<?xml version="1.0" encoding="UTF-8"?><svg id="Capa_2" xmlns="http://www.w3.org/2000/svg" viewBox="0 0 205.64 233.37"><defs><style>.cls-1{fill:#fff;}</style></defs><g id="Capa_1-2"><g><path class="cls-1" d="M34.65,91.09c21.64-.41,32.41,15.27,42.82,30.44,12.79,18.63,26.01,37.89,62.31,37.2,22.45-.43,51.15-7.58,62.01-40.57,6.34-19.28,4.73-40.2-3.93-58.56C180.93,23.73,144.12-.78,101.9,.02,44.53,1.11-6.33,49.74,.64,115.54c10.08-13.96,20.27-24.2,34.01-24.46Z"/><path class="cls-1" d="M140.12,178.69c-47.06,0-65.61-26.13-79.15-45.86-9.91-14.44-15.57-21.97-25.98-21.77-7.86,.15-18.08,15.6-27.97,30.57,4.71,12.08,11.61,23.04,20.2,32.42,12.41,13.55,30.63,19.04,48.96,17.82,28.72-1.92,42.04,.63,56.06,11.28l37.4,30.22v-34.99c0-13.36,10.32-23.4,17.03-33.52-12.64,7.03-23.35,13.84-46.56,13.84Z"/></g></g></svg>